<?xml version="1.0" encoding="UTF-8"?>
<!DOCTYPE svg PUBLIC "-//W3C//DTD SVG 1.1//EN" "http://www.w3.org/Graphics/SVG/1.1/DTD/svg11.dtd">
<!-- Creator: CorelDRAW 2019 (64-Bit) -->
<svg xmlns="http://www.w3.org/2000/svg" xml:space="preserve" width="164.796mm" height="164.738mm" version="1.1" style="shape-rendering:geometricPrecision; text-rendering:geometricPrecision; image-rendering:optimizeQuality; fill-rule:evenodd; clip-rule:evenodd"
viewBox="0 0 164.9045 164.8466"
 xmlns:xlink="http://www.w3.org/1999/xlink"
 xmlns:xodm="http://www.corel.com/coreldraw/odm/2003">
 <defs>
  <style type="text/css">
   <![CDATA[
    .fil2 {fill:#E42526}
    .fil1 {fill:#19A64A}
    .fil3 {fill:#1F1C1F}
    .fil0 {fill:white}
   ]]>
  </style>
 </defs>
 <g id="Layer_x0020_1">
  <metadata id="CorelCorpID_0Corel-Layer"/>
  <g id="_895045872">
   <path class="fil0" d="M138.9393 22.3917c-15.3454,-14.4393 -35.4068,-22.3917 -56.4869,-22.3917 -21.0798,0 -41.1401,7.9523 -56.4867,22.3917 -15.275,14.373 -24.4328,33.7851 -25.7858,54.6594 -0.1207,1.8476 -0.18,3.6662 -0.18,5.4026 0,4.1748 0.3159,8.3758 0.94,12.4853 0.0621,0.4089 0.1221,0.8137 0.1789,1.2109l0.0513 0.3436c0.2319,1.5988 0.4727,3.2525 0.8383,5.114l10.0685 50.4313c0.7068,3.5451 2.6792,6.7967 5.5527,9.1542 2.8736,2.3571 6.4473,3.6537 10.0623,3.6537l109.5188 0c3.6147,0 7.1893,-1.2967 10.0616,-3.6532 2.8733,-2.3567 4.8466,-5.6083 5.5559,-9.1529l10.0718 -50.4622c0.3649,-1.8462 0.6051,-3.5116 0.8398,-5.1215 0.073,-0.5035 0.1464,-1.0131 0.2229,-1.5179 0.6245,-4.105 0.9415,-8.3057 0.9415,-12.4853 0,-1.7453 -0.0596,-3.563 -0.1797,-5.4022 -1.3543,-20.8737 -10.5122,-40.2868 -25.7854,-54.6598z"/>
   <path class="fil1" d="M59.0775 21.2535c-8.0104,3.0176 -15.4181,7.6034 -21.7983,13.6077 -12.1553,11.4366 -19.4413,26.8782 -20.5176,43.478 -0.0961,1.4836 -0.1449,2.9347 -0.1449,4.3087 0,3.3285 0.253,6.6765 0.7498,9.9518 0.0864,0.5666 0.1671,1.1242 0.2481,1.6806 0.1815,1.2445 0.3565,2.4303 0.5715,3.609l40.8915 0 0 -76.6357z"/>
   <path class="fil2" d="M146.2761 97.8893c0.2037,-1.2836 0.3695,-2.4213 0.5412,-3.609 0.0824,-0.5564 0.1624,-1.114 0.2483,-1.6801 0.4975,-3.2709 0.7492,-6.6198 0.7492,-9.9523 0,-1.3841 -0.0481,-2.8337 -0.1441,-4.31 -1.0764,-16.5984 -8.3642,-32.04 -20.5168,-43.4767 -6.3418,-5.9665 -13.6962,-10.5352 -21.6502,-13.5539l0 76.582 40.7725 0z"/>
   <path class="fil0" d="M104.0817 20.7857c-6.9463,-2.4537 -14.323,-3.736 -21.8656,-3.4546 -7.5424,-0.2814 -14.9191,1.0009 -21.8659,3.4546 -0.4269,0.1498 -0.8495,0.3076 -1.2726,0.4678l0 76.6357 46.4261 0 0 -76.582c-0.4714,-0.1784 -0.9456,-0.3534 -1.4219,-0.5215z"/>
   <path class="fil3" d="M162.2654 77.4058c-1.312,-20.2487 -10.1965,-39.0797 -25.0145,-53.0237 -14.8867,-14.0081 -34.3483,-21.7236 -54.7984,-21.7236 -20.4514,0 -39.9119,7.7155 -54.7984,21.7236 -14.818,13.944 -23.7031,32.775 -25.016,53.0219 -0.1153,1.7865 -0.1746,3.5505 -0.1746,5.2454 0,4.051 0.3074,8.127 0.9133,12.114 0.0818,0.5363 0.1576,1.0643 0.2342,1.5885 0.2302,1.5803 0.4683,3.214 0.8181,4.9955l10.1573 50.8809c1.1775,5.9004 6.6024,10.3498 12.6191,10.3498l39.0034 0 0 -7.9943 -39.0031 0c-2.1985,0 -4.349,-1.7632 -4.7793,-3.9191l-10.157 -50.8831c-0.4182,-2.1219 -0.6697,-4.1152 -0.9898,-6.2199 -0.5403,-3.5589 -0.822,-7.2033 -0.822,-10.9124 0,-1.5884 0.0566,-3.1627 0.1581,-4.7261 2.436,-37.5576 33.6626,-67.2701 71.8367,-67.2701 38.1742,0 69.4001,29.7125 71.8367,67.2701 0.1007,1.5634 0.1577,3.1377 0.1577,4.7261 0,3.7091 -0.2814,7.3535 -0.8224,10.9124 -0.319,2.1047 -0.5708,4.098 -0.9895,6.2199l-10.1565 50.8831c-0.4302,2.1559 -2.5806,3.9191 -4.7792,3.9191l-32.1957 0 0 7.9943 32.1957 0c6.0145,0 11.44,-4.4482 12.6194,-10.3481l10.16 -50.9036c0.35,-1.7703 0.5879,-3.416 0.819,-5.0054 0.0743,-0.5155 0.1509,-1.0353 0.2288,-1.5562 0.6074,-3.9818 0.9139,-8.0586 0.9139,-12.1154 0,-1.6881 -0.0583,-3.4513 -0.175,-5.2436z"/>
   <path class="fil3" d="M77.9153 113.1437l8.5567 0 0 26.9502 -8.5567 0 0 -26.9502zm-11.7064 -2.5376l0 0 0 32.024c0.0075,3.2386 2.6411,5.8656 5.9062,5.8736l14.2051 0 0 6.08 -12.98 -0.0012 0 7.9942 18.9295 0c3.2673,-0.004 5.9023,-2.6349 5.9081,-5.8701l0 -46.0987c-0.0058,-3.2435 -2.6408,-5.8683 -5.9081,-5.8758l-20.1515 0c-3.2682,0.0075 -5.9018,2.6322 -5.9093,5.874z"/>
   <path class="fil3" d="M47.4094 140.0939l-8.5573 0 0 -11.9523 8.5573 0 0 11.9523zm5.7639 -35.3617l0 0 -20.2167 0 0 8.4115 14.4746 0 0 6.5872 -14.3644 -0.0023c-3.2135,0.0049 -5.8297,2.5501 -5.9204,5.8741l0.0026 17.0363c0.0308,3.2024 2.5752,5.7932 5.9001,5.8647l20.1078 0.0054c3.2587,-0.004 5.899,-2.6091 5.9206,-6.0001l0 -31.9042c-0.0045,-3.2391 -2.6407,-5.8701 -5.9042,-5.8727z"/>
   <path class="fil3" d="M134.4197 142.6378l7.918 -37.9056 -11.4285 0 -7.3358 35.3617 -6.3646 0 0 -35.3617 -11.7051 0 0 43.8239 23.0766 0c3.2142,-0.004 5.1737,-2.5729 5.8395,-5.9183z"/>
  </g>
 </g>
</svg>
