<svg id="Layer_1" data-name="Layer 1" xmlns="http://www.w3.org/2000/svg" viewBox="0 0 638 142.6"><defs><style>.cls-1{fill:#df0031;}.cls-2{fill-rule:evenodd;}</style></defs><title>Akrapovic Logo Vector</title><path class="cls-1" d="M181.21,552.8c.74-4.26,6.48-36.48,6.48-36.48,3.51,4.68,6.7,8.83,7.66,10,2,2.45,6.49,2.87,9.89.11l28.39-24L203,465.17c-11.49-14.57-1.17-36.47,18.5-36.47h95.6c-6.38,5.42-25.95,22.12-29.88,25.41a14.27,14.27,0,0,1-9.47,3.09h-26.9c-3.19,0-4.68,3.51-2.55,6.06l46.89,56.79a3.56,3.56,0,0,0,6.17-1.81l4.68-26.69c.64-3.41,1.49-6.28,4.79-9,4.67-3.94,21.37-18.19,29.77-25.31l-16.8,95.39c-3.72,19.35-28.39,24.56-39.77,10.95L254.37,527.7s-42.32,36.16-46.79,39.77c-12.34,9.89-28.61-1.38-26.37-14.67" transform="translate(-181 -428.7)"/><path class="cls-2" d="M817.65,442.42s-26.79,1.91-29.45,2.12a5.41,5.41,0,0,0-4.89,4.47l-.75,4h33.18ZM514.26,508l7.13-40.2c1.06-5.85-2.87-10.53-8.61-10.53l-35,.11-20,113.68H473l7.34-41.37,5.64-1.27,2.34,42.64h15.42l-3.09-47.22A19.82,19.82,0,0,0,514.26,508m-15.41,1.49a2.78,2.78,0,0,1-2,2.34l-14.14,3.61,7.76-44.13,13.51.11a1.39,1.39,0,0,1,1.38,1.59Zm-118.68-52A12.94,12.94,0,0,0,367.83,468L349.65,571.19h15.1l7.34-41.36,16-3.51-7.87,44.87h15l20-113.67ZM390.48,512l-16,3.51,7.55-42.64a2.06,2.06,0,0,1,1.92-1.6h13.72Zm81.35-54.44H457l-24.89,54.23,9.57-54.23h-15.1l-20,113.67h15.1L429.83,525l7.23,46.15h15L444,519Zm338.38,0H785.64A12.93,12.93,0,0,0,773.31,468l-16.38,92.52c-1.06,5.85,2.77,10.63,8.62,10.63h24.56a12.93,12.93,0,0,0,12.34-10.52l5.42-30.95H793l-4.68,26.16a1.94,1.94,0,0,1-1.91,1.6H774.27a1.41,1.41,0,0,1-1.39-1.6l14.68-83.05a2.14,2.14,0,0,1,1.91-1.59H801.6a1.4,1.4,0,0,1,1.38,1.59l-4,23h15l4.89-27.86c1.07-5.74-2.76-10.42-8.61-10.42m-268,0A12.92,12.92,0,0,0,529.9,468L511.71,571.19h15.1L534,529.93l16-3.5-7.86,44.76h15l20-113.67ZM552.65,512l-15.95,3.51,7.55-42.64a2.17,2.17,0,0,1,1.92-1.6h13.71Zm172.81-54.44L703,541l7-83.47h-15.1l-6.06,113.67h17.65l33.81-113.67Zm23.39,0-20,113.67H744l20-113.67ZM631.88,468c1.06-5.84-2.87-10.52-8.72-10.52H588.28l-20,113.67h15.2l7.34-41.36,20-5.64a20.64,20.64,0,0,0,14.14-16ZM609.44,509.2a3.07,3.07,0,0,1-2,2.44l-14.14,3.73L601,471h13.61a1.4,1.4,0,0,1,1.38,1.6Zm68.06-51.68H652.93A12.92,12.92,0,0,0,640.6,468l-16.38,92.63c-1.06,5.85,2.77,10.63,8.61,10.63H657.4a12.92,12.92,0,0,0,12.33-10.53L686.11,468c1.06-5.84-2.87-10.52-8.61-10.52M655.59,556a2,2,0,0,1-1.91,1.59H641.55a1.4,1.4,0,0,1-1.38-1.59l14.68-83.37a2.15,2.15,0,0,1,1.91-1.6h12.12a1.41,1.41,0,0,1,1.39,1.6Z" transform="translate(-181 -428.7)"/></svg>