<svg id="Layer_1" data-name="Layer 1" xmlns="http://www.w3.org/2000/svg" viewBox="0 0 638 129.16"><defs><style>.cls-1{fill:#fff;}.cls-1,.cls-2{fill-rule:evenodd;}</style></defs><title>Alpinestars Logo Vector</title><path class="cls-1" d="M708.24,489.17c-.24-.11-.34-.2-.44-.2-9.32,0-18.64,0-27.95,0a2,2,0,0,0-1.36,1c-1.17,2.12-2.27,4.29-3.29,6.48a2.06,2.06,0,0,1-2.31,1.32c-5.43-.32-10.85-.64-16.28-.87-7.67-.33-15.29.24-22.6,2.73-2.73.93-5.19,1.6-7.8-.12a6.75,6.75,0,0,0-2.13-.69A67.18,67.18,0,0,0,588.63,500c-2.32.69-4.32,1.31-6.35-.53a6,6,0,0,0-2-.9c-4.78-1.68-9.73-1.85-14.73-1.67q-11,.38-22,.69a14.48,14.48,0,0,1-1.5-.13l5.54-11.79c-8.88,0-17.45.17-26-.08-3-.09-4.41.81-5.5,3.5-1.42,3.51-3.33,6.83-5,10.19-8.76-2.47-13.31-2.93-19.6-2.5-5.13.35-10.27.43-15.41.62-.6,0-1.21-.08-2.06-.14,1.79-3.86,3.47-7.49,5.26-11.33-9.9,0-19.44,0-29,0a2,2,0,0,0-1.36,1c-.89,1.68-1.63,3.44-2.46,5.16-1.09,2.27-2.2,4.52-3.32,6.81-1-.33-1.83-.66-2.67-.84-10-2.07-20.1-2.87-30.28-.84-10.51,2.1-18.91,7.22-24.61,16.43-1.57,2.54-3.08,5.13-4.5,7.76-1.95,3.59-3.58,7-3,11.06a9.72,9.72,0,0,0,1.44,4.12c2.32,3.35,5.79,5.1,9.66,6,7.71,1.74,15.4,1,23.07-.45a4.18,4.18,0,0,1,1.41-.09c.38,1.28,1.41.8,2.17.81q9.28,0,18.58,0h2l-5.81,12.86c.73,0,1.23.09,1.73.09,8.62,0,17.25,0,25.87,0a2.2,2.2,0,0,0,2.41-1.57c1.79-4,3.72-7.93,5.64-12a32.79,32.79,0,0,0,18,1.59c3.86-.73,7.65-.57,11.48-.63H498q38,0,76.05,0a10.45,10.45,0,0,0,2.1-.43c.54-.11,1.14-.45,1.63-.32,12.54,3.18,24.87,2.24,37.09-1.69a4,4,0,0,1,2.57.1,38.31,38.31,0,0,0,11.68,3.09,94,94,0,0,0,32.5-2.85,3.46,3.46,0,0,1,2.24.25,22.74,22.74,0,0,0,12.4,2.5c3-.25,6,0,9,.06,4.73,0,9.47.23,14.19,0,2.91-.13,5.69-.92,8.76-.8,10.86.42,21.75.15,32.63.19a2.06,2.06,0,0,0,2.26-1.34c1.1-2.38,2.36-4.69,3.64-7.18,2,3,4.47,5.31,7.68,6.31a77.33,77.33,0,0,0,12.9,3.16c8.56,1.1,17.08.06,25.52-1.59,5.47-1.07,10.82-2.53,15.43-5.86,4.05-2.92,6.6-6.79,6.92-11.87a25.25,25.25,0,0,0-.5-4.4c.55,0,1.07,0,1.58,0,1.43.13,2.05-.4,2.11-1.93.09-2.94.47-5.87.58-8.81a8.7,8.7,0,0,0-2.89-6.8,17.93,17.93,0,0,0-8.07-4.18c-5.31-1.44-10.73-1.58-16.18-1.61-6.06,0-12.13-.11-18.2-.11-2,0-3.93.09-5.88.27s-4.11.76-6.16.75c-8.28,0-16.55-.2-24.82-.3a8.59,8.59,0,0,0-1.77.37,3.9,3.9,0,0,1-1.49.29c-6.39-1.34-12.86-1.42-19.34-1.3-3,.05-6.06.27-9.33.43C706,494.67,707.14,491.92,708.24,489.17Z" transform="translate(-181 -435.42)"/><path class="cls-2" d="M708.24,489.17c-1.1,2.75-2.21,5.5-3.38,8.43,3.27-.16,6.3-.38,9.33-.43,6.48-.12,12.95,0,19.34,1.3a3.9,3.9,0,0,0,1.49-.29,8.59,8.59,0,0,1,1.77-.37c8.27.1,16.54.28,24.82.3,2,0,4.1-.57,6.16-.75s3.92-.28,5.88-.27c6.07,0,12.14.08,18.2.11,5.45,0,10.87.17,16.18,1.61A17.93,17.93,0,0,1,816.1,503a8.7,8.7,0,0,1,2.89,6.8c-.11,2.94-.49,5.87-.58,8.81-.06,1.53-.68,2.06-2.11,1.93-.51,0-1,0-1.58,0a25.25,25.25,0,0,1,.5,4.4c-.32,5.08-2.87,9-6.92,11.87-4.61,3.33-10,4.79-15.43,5.86-8.44,1.65-17,2.69-25.52,1.59a77.33,77.33,0,0,1-12.9-3.16c-3.21-1-5.64-3.31-7.68-6.31-1.28,2.49-2.54,4.8-3.64,7.18a2.06,2.06,0,0,1-2.26,1.34c-10.88,0-21.77.23-32.63-.19-3.07-.12-5.85.67-8.76.8-4.72.21-9.46,0-14.19,0-3,0-6-.31-9-.06a22.74,22.74,0,0,1-12.4-2.5,3.46,3.46,0,0,0-2.24-.25,94,94,0,0,1-32.5,2.85,38.31,38.31,0,0,1-11.68-3.09,4,4,0,0,0-2.57-.1c-12.22,3.93-24.55,4.87-37.09,1.69-.49-.13-1.09.21-1.63.32a10.45,10.45,0,0,1-2.1.43q-38,0-76.05,0H495.6c-3.83.06-7.62-.1-11.48.63a32.79,32.79,0,0,1-18-1.59c-1.92,4-3.85,8-5.64,12a2.2,2.2,0,0,1-2.41,1.57c-8.62-.06-17.25,0-25.87,0-.5,0-1,0-1.73-.09l5.81-12.86h-2q-9.3,0-18.58,0c-.76,0-1.79.47-2.17-.81a4.18,4.18,0,0,0-1.41.09c-7.67,1.42-15.36,2.19-23.07.45-3.87-.88-7.34-2.63-9.66-6a9.72,9.72,0,0,1-1.44-4.12c-.56-4.09,1.07-7.47,3-11.06,1.42-2.63,2.93-5.22,4.5-7.76,5.7-9.21,14.1-14.33,24.61-16.43,10.18-2,20.24-1.23,30.28.84.84.18,1.65.51,2.67.84,1.12-2.29,2.23-4.54,3.32-6.81.83-1.72,1.57-3.48,2.46-5.16a2,2,0,0,1,1.36-1c9.54-.06,19.08,0,29,0-1.79,3.84-3.47,7.47-5.26,11.33.85.06,1.46.16,2.06.14,5.14-.19,10.28-.27,15.41-.62,6.29-.43,10.84,0,19.6,2.5,1.68-3.36,3.59-6.68,5-10.19,1.09-2.69,2.54-3.59,5.5-3.5,8.56.25,17.13.08,26,.08L542,497.42a14.48,14.48,0,0,0,1.5.13q11-.33,22-.69c5-.18,10,0,14.73,1.67a6,6,0,0,1,2,.9c2,1.84,4,1.22,6.35.53a67.18,67.18,0,0,1,35.45-1.13,6.75,6.75,0,0,1,2.13.69c2.61,1.72,5.07,1.05,7.8.12,7.31-2.49,14.93-3.06,22.6-2.73,5.43.23,10.85.55,16.28.87a2.06,2.06,0,0,0,2.31-1.32c1-2.19,2.12-4.36,3.29-6.48a2,2,0,0,1,1.36-1c9.31-.05,18.63,0,27.95,0C707.9,489,708,489.06,708.24,489.17Zm-190,48.21c5.13,0,9.93,0,14.73,0,.47,0,1.11-.7,1.37-1.22,2.92-5.9,5.83-11.82,8.64-17.78a9.36,9.36,0,0,1,4.13-4.51,26.41,26.41,0,0,1,5.43-2.23,20.63,20.63,0,0,1,11-.15c2.75.78,3.22,2,2,4.53-2.14,4.48-4.3,9-6.44,13.45-1.25,2.63-2.46,5.28-3.78,8.12,4.88,0,9.45-.12,14,.06,2.16.08,3.7-.34,4.39-2.54,0-.08.18-.13.16-.11,2.74.95,5.33,2.24,8.06,2.75A59.91,59.91,0,0,0,615,534.65a3.68,3.68,0,0,1,3.54.19,24.17,24.17,0,0,0,4.73,2.12c8.3,2.64,16.8,2.59,25.24,1.17,5.43-.92,10.73-2.61,16.28-4,1.66,3,4.81,4.1,8.43,4.29,1.56.08,3.13-.11,4.69-.07,2.36,0,4.74,0,7.09.32,8.35,1,16.5.5,24.32-2.92,1.07-.48,2.17-.9,3.44-1.41-.14,1.24-.24,2.25-.35,3.22a2,2,0,0,0,.47.15c8.28,0,16.55,0,24.83,0a2.34,2.34,0,0,0,1.59-1.17q4.1-7.83,8.05-15.75a14.41,14.41,0,0,1,13.28-7.57,8.33,8.33,0,0,1-.27.8c-1.62,3.76-.88,6.23,2.9,7.65a60,60,0,0,0,10.48,2.81c4.94.88,10,1.35,14.93,2.07a9.32,9.32,0,0,1,2.27,1c.05.23.1.46.14.69a15.85,15.85,0,0,1-3.29,1.81,33.72,33.72,0,0,1-14.1.67,9.4,9.4,0,0,1-4.1-1.69c-.6-.45-.51-1.82-.77-2.91-5.23,0-10.55,0-15.86.05a1.77,1.77,0,0,0-1.29,1c-.92,3.56-.42,5.52,2.19,7.13a19.26,19.26,0,0,0,5.16,2.36,70.08,70.08,0,0,0,39-1.12c3.33-1,6.52-2.49,8.89-5.18,3.42-3.89,3.57-9.12-2.58-11.24a46.43,46.43,0,0,0-7.75-1.82c-5.3-.85-10.64-1.45-15.95-2.31a11.37,11.37,0,0,1-3.05-1.54c1-.74,2-1.91,3.11-2.16a30.9,30.9,0,0,1,12.74-.3c2.56.52,3,1.15,3.05,3.72h16.37c1.51-4.34.64-6.81-3.21-8.94a14.29,14.29,0,0,0-3.53-1.37,66,66,0,0,0-21.38-1.22c-3.25.28-6.47.88-9.77,1.34.17-.55.33-1.07.51-1.67a28.69,28.69,0,0,0-11.64.87c-3.63,1.07-7.11,2.66-10.6,4,.54-1.18,1.13-2.47,1.86-4h-2c-3.82,0-7.64,0-11.46,0-1.75,0-3.61-.34-4,2.07-1.39-.5-2.55-1-3.76-1.33A59.53,59.53,0,0,0,711,502.94c-5,.67-10,.18-15,.27-.08,0-.16-.14-.35-.32,1.28-2.74,2.59-5.53,3.91-8.33a2.87,2.87,0,0,0-.54-.19c-4.17,0-8.36.23-12.5-.09-3.08-.25-4.77.73-5.8,3.6-.65,1.83-1.39,4.15-2.83,5s-3.9.27-5.9.43a13.54,13.54,0,0,0-2.53.68,6.41,6.41,0,0,1-2.16-.49,52.18,52.18,0,0,0-36.63,3.66A2.35,2.35,0,0,1,628,507c-2.15-1.3-4.4-2.77-6.79-3.28a58.08,58.08,0,0,0-23.78-.16c-4.66.94-9.19,2.49-14,3.81a11.21,11.21,0,0,0-7-4c-9.49-1.81-18.76-1.45-27.55,3.09a6.65,6.65,0,0,1-1,.31l1.44-3.47c-4.69,0-9.08,0-13.47,0a2.06,2.06,0,0,0-2.22,1.39c-3,6.51-6.07,13-9.12,19.48Zm-18.74,0c5.35,0,10.38,0,15.41,0,.47,0,1.13-.66,1.37-1.17q7.26-15.25,14.44-30.56c.35-.74.62-1.52,1-2.48-4.47,0-8.64.15-12.79-.05-2.35-.12-3.83.49-4.51,2.82a11.87,11.87,0,0,1-1.15,2.07,11.08,11.08,0,0,0-7-4.37,46.61,46.61,0,0,0-24.49,1c-1.75.57-3.44,1.31-5.4,2.06.61-1.37,1.1-2.49,1.7-3.83h-13l5.33-11.17c-5.66,0-11.09,0-16.51.05-.44,0-1,.64-1.27,1.12-1.64,3.25-3.2,6.54-4.79,9.82-.74,1.52-1.49,3-2.32,4.71a14.65,14.65,0,0,0-7.43-4.07c-7.45-1.91-15-1.69-22.59-1.14a36.05,36.05,0,0,0-15.05,4.3,21.3,21.3,0,0,0-8.35,8.11c5.47,0,10.67,0,15.86,0a2,2,0,0,0,1.17-.6c5.27-4.93,11.47-4.72,17.87-3.19.65.16,1.64,1,1.6,1.45a2.72,2.72,0,0,1-1.41,1.93,22.3,22.3,0,0,1-5.33,1.29c-6.73.66-13.5,1-20.2,1.81-6.06.78-11.72,2.87-15.85,7.72-4.37,5.14-2.72,10.25,3.78,11.92,6.71,1.74,13.43,1.31,20.11-.12,3.11-.67,6.14-1.75,9.32-2.68-.13,1-.25,2-.4,3.22h26.23c-1.85,4.42-3.6,8.57-5.42,12.92,5.51,0,10.71,0,15.91,0a2,2,0,0,0,1.38-.95c.87-1.63,1.58-3.34,2.36-5,1.65-3.55,3.3-7.1,5-10.76,4.39,4.31,9.65,5.2,15.32,4.63a86.72,86.72,0,0,0,19.63-4.84c.79-.27,1.59-.52,2.71-.89ZM517,500.23c5.63,0,10.89,0,16.15,0,.35,0,.9-.15,1-.4,1.46-2.8,2.85-5.62,4.35-8.6-5.7,0-11.08,0-16.45,0a1.4,1.4,0,0,0-1.09.58C519.7,494.49,518.45,497.21,517,500.23Z" transform="translate(-181 -435.42)"/><path class="cls-1" d="M518.21,537.38l6.26-13.28c3-6.49,6.11-13,9.12-19.48a2.06,2.06,0,0,1,2.22-1.39c4.39.07,8.78,0,13.47,0l-1.44,3.47a6.65,6.65,0,0,0,1-.31c8.79-4.54,18.06-4.9,27.55-3.09a11.21,11.21,0,0,1,7,4c4.76-1.32,9.29-2.87,14-3.81a58.08,58.08,0,0,1,23.78.16c2.39.51,4.64,2,6.79,3.28a2.35,2.35,0,0,0,2.73.18,52.18,52.18,0,0,1,36.63-3.66,6.41,6.41,0,0,0,2.16.49,13.54,13.54,0,0,1,2.53-.68c2-.16,4.4.48,5.9-.43s2.18-3.19,2.83-5c1-2.87,2.72-3.85,5.8-3.6,4.14.32,8.33.08,12.5.09a2.87,2.87,0,0,1,.54.19c-1.32,2.8-2.63,5.59-3.91,8.33.19.18.27.32.35.32,5-.09,9.94.4,15-.27a59.53,59.53,0,0,1,22.89,1.45c1.21.31,2.37.83,3.76,1.33.37-2.41,2.23-2.08,4-2.07,3.82,0,7.64,0,11.46,0h2c-.73,1.56-1.32,2.85-1.86,4,3.49-1.34,7-2.93,10.6-4a28.69,28.69,0,0,1,11.64-.87c-.18.6-.34,1.12-.51,1.67,3.3-.46,6.52-1.06,9.77-1.34a66,66,0,0,1,21.38,1.22,14.29,14.29,0,0,1,3.53,1.37c3.85,2.13,4.72,4.6,3.21,8.94H796.44c-.07-2.57-.49-3.2-3.05-3.72a30.9,30.9,0,0,0-12.74.3c-1.14.25-2.08,1.42-3.11,2.16a11.37,11.37,0,0,0,3.05,1.54c5.31.86,10.65,1.46,15.95,2.31a46.43,46.43,0,0,1,7.75,1.82c6.15,2.12,6,7.35,2.58,11.24-2.37,2.69-5.56,4.15-8.89,5.18a70.08,70.08,0,0,1-39,1.12,19.26,19.26,0,0,1-5.16-2.36c-2.61-1.61-3.11-3.57-2.19-7.13a1.77,1.77,0,0,1,1.29-1c5.31-.07,10.63-.05,15.86-.05.26,1.09.17,2.46.77,2.91a9.4,9.4,0,0,0,4.1,1.69,33.72,33.72,0,0,0,14.1-.67,15.85,15.85,0,0,0,3.29-1.81c0-.23-.09-.46-.14-.69a9.32,9.32,0,0,0-2.27-1c-5-.72-10-1.19-14.93-2.07a60,60,0,0,1-10.48-2.81c-3.78-1.42-4.52-3.89-2.9-7.65a8.33,8.33,0,0,0,.27-.8,14.41,14.41,0,0,0-13.28,7.57q-3.95,7.92-8.05,15.75a2.34,2.34,0,0,1-1.59,1.17c-8.28.07-16.55,0-24.83,0a2,2,0,0,1-.47-.15c.11-1,.21-2,.35-3.22-1.27.51-2.37.93-3.44,1.41-7.82,3.42-16,3.93-24.32,2.92-2.35-.28-4.73-.27-7.09-.32-1.56,0-3.13.15-4.69.07-3.62-.19-6.77-1.34-8.43-4.29-5.55,1.4-10.85,3.09-16.28,4-8.44,1.42-16.94,1.47-25.24-1.17a24.17,24.17,0,0,1-4.73-2.12,3.68,3.68,0,0,0-3.54-.19,59.91,59.91,0,0,1-33.06,3.05c-2.73-.51-5.32-1.8-8.06-2.75,0,0-.13,0-.16.11-.69,2.2-2.23,2.62-4.39,2.54-4.56-.18-9.13-.06-14-.06,1.32-2.84,2.53-5.49,3.78-8.12,2.14-4.49,4.3-9,6.44-13.45,1.19-2.5.72-3.75-2-4.53a20.63,20.63,0,0,0-11,.15,26.41,26.41,0,0,0-5.43,2.23,9.36,9.36,0,0,0-4.13,4.51c-2.81,6-5.72,11.88-8.64,17.78-.26.52-.9,1.21-1.37,1.22C528.14,537.42,523.34,537.38,518.21,537.38Zm114.95-11.76c-.95,3-.59,3.64,2.31,4.5a4.92,4.92,0,0,0,1.35.28c3.52,0,7,.12,10.54-.12a21.58,21.58,0,0,0,5.5-1.44,2.2,2.2,0,0,0,1-1.58c0-.28-.83-.85-1.37-1a40.43,40.43,0,0,0-4.74-1c-5.87-.89-11.76-1.72-17.64-2.56a2.15,2.15,0,0,0-.8,0,10.71,10.71,0,0,1-2.5.68q-18.3.06-36.6,0a7.94,7.94,0,0,0-2.24.06,2.06,2.06,0,0,0-1.3,1.19c-.51,2.26.47,3.88,2.75,4.71a20.39,20.39,0,0,0,10.95.53c3.33-.64,6.75-1.18,9.12-4a1.13,1.13,0,0,1,.79-.22C617.9,525.61,625.47,525.62,633.16,525.62Zm39.47-11.09c-4.14,0-7.94,0-11.74,0-.91,0-1.62-.09-1.59-1.25,0-1.58-.91-2.23-2.33-2.48a33.51,33.51,0,0,0-13.92.67,13.2,13.2,0,0,0-2.78,1.62A9.3,9.3,0,0,0,642,514c1.68.41,3.37.83,5.08,1.09,7.72,1.17,15.69,1.17,23,4.83Zm45,7.81c-4.78.51-9.47.92-14.14,1.54-2.91.38-5.87.9-8,3.21-1.62,1.75-1.26,3.14,1.06,3.53,6.06,1,11.85.22,17.08-3.21A9.5,9.5,0,0,0,717.63,522.34Zm-30.13-2.66c1.59-.44,2.75-.8,3.92-1.1,7.84-2,15.93-1.84,23.9-2.72a21.35,21.35,0,0,0,5-1c.8-.3,1.29-1.45,1.92-2.22-.78-.44-1.53-1.23-2.33-1.27a89.38,89.38,0,0,0-10.35-.18,9.71,9.71,0,0,0-6.65,3.36,2.72,2.72,0,0,1-1.83.62c-3.36.05-6.71,0-10.07,0a2.23,2.23,0,0,0-1.6.59A39.68,39.68,0,0,0,687.5,519.68Zm-73-3.59c-.38-1.14-.42-2.41-1.07-3a7.84,7.84,0,0,0-3.86-2,36.3,36.3,0,0,0-8.59,0,14.53,14.53,0,0,0-9,5Z" transform="translate(-181 -435.42)"/><path class="cls-1" d="M499.47,537.37l2.29-5c-1.12.37-1.92.62-2.71.89a86.72,86.72,0,0,1-19.63,4.84c-5.67.57-10.93-.32-15.32-4.63-1.71,3.66-3.36,7.21-5,10.76-.78,1.68-1.49,3.39-2.36,5a2,2,0,0,1-1.38.95c-5.2.06-10.4,0-15.91,0,1.82-4.35,3.57-8.5,5.42-12.92H418.63c.15-1.19.27-2.19.4-3.22-3.18.93-6.21,2-9.32,2.68-6.68,1.43-13.4,1.86-20.11.12-6.5-1.67-8.15-6.78-3.78-11.92,4.13-4.85,9.79-6.94,15.85-7.72,6.7-.86,13.47-1.15,20.2-1.81a22.3,22.3,0,0,0,5.33-1.29,2.72,2.72,0,0,0,1.41-1.93c0-.44-.95-1.29-1.6-1.45-6.4-1.53-12.6-1.74-17.87,3.19a2,2,0,0,1-1.17.6c-5.19,0-10.39,0-15.86,0a21.3,21.3,0,0,1,8.35-8.11,36.05,36.05,0,0,1,15.05-4.3c7.56-.55,15.14-.77,22.59,1.14a14.65,14.65,0,0,1,7.43,4.07c.83-1.67,1.58-3.19,2.32-4.71,1.59-3.28,3.15-6.57,4.79-9.82.25-.48.83-1.12,1.27-1.12,5.42-.08,10.85-.05,16.51-.05l-5.33,11.17h13c-.6,1.34-1.09,2.46-1.7,3.83,2-.75,3.65-1.49,5.4-2.06a46.61,46.61,0,0,1,24.49-1,11.08,11.08,0,0,1,7,4.37,11.87,11.87,0,0,0,1.15-2.07c.68-2.33,2.16-2.94,4.51-2.82,4.15.2,8.32.05,12.79.05-.38,1-.65,1.74-1,2.48q-7.2,15.3-14.44,30.56c-.24.51-.9,1.16-1.37,1.17C509.85,537.4,504.82,537.37,499.47,537.37Zm-23.07-7.19c1.55-.18,2.81-.3,4.07-.47a19.31,19.31,0,0,0,14-8.58c3.22-4.79,1.62-9.13-4-10.54-5.37-1.34-10.31.08-14.88,2.86a14.71,14.71,0,0,0-7.13,9.4,5.14,5.14,0,0,0,3.93,6.61C473.8,529.83,475.24,530,476.4,530.18Zm-52.3-8.48c-4.74.53-9.33,1-13.89,1.6a31.53,31.53,0,0,0-6.34,1.61c-1.8.66-3.19,2.71-2.81,3.79.61,1.74,2.28,1.72,3.74,2a5.34,5.34,0,0,0,.69.05,29.22,29.22,0,0,0,11.34-2.08C420.08,527.34,423.18,525.73,424.1,521.7Z" transform="translate(-181 -435.42)"/><path class="cls-1" d="M517,500.23c1.41-3,2.66-5.74,4-8.42a1.4,1.4,0,0,1,1.09-.58c5.37,0,10.75,0,16.45,0-1.5,3-2.89,5.8-4.35,8.6-.13.25-.68.4-1,.4C527.93,500.23,522.67,500.23,517,500.23Z" transform="translate(-181 -435.42)"/><path class="cls-2" d="M633.16,525.62c-7.69,0-15.26,0-22.83,0a1.13,1.13,0,0,0-.79.22c-2.37,2.87-5.79,3.41-9.12,4a20.39,20.39,0,0,1-10.95-.53c-2.28-.83-3.26-2.45-2.75-4.71a2.06,2.06,0,0,1,1.3-1.19,7.94,7.94,0,0,1,2.24-.06q18.3,0,36.6,0a10.71,10.71,0,0,0,2.5-.68,2.15,2.15,0,0,1,.8,0c5.88.84,11.77,1.67,17.64,2.56a40.43,40.43,0,0,1,4.74,1c.54.15,1.4.72,1.37,1a2.2,2.2,0,0,1-1,1.58,21.58,21.58,0,0,1-5.5,1.44c-3.5.24-7,.12-10.54.12a4.92,4.92,0,0,1-1.35-.28C632.57,529.26,632.21,528.6,633.16,525.62Z" transform="translate(-181 -435.42)"/><path class="cls-2" d="M672.63,514.53,670.11,520c-7.35-3.66-15.32-3.66-23-4.83-1.71-.26-3.4-.68-5.08-1.09a9.3,9.3,0,0,1-1.72-.94,13.2,13.2,0,0,1,2.78-1.62,33.51,33.51,0,0,1,13.92-.67c1.42.25,2.37.9,2.33,2.48,0,1.16.68,1.26,1.59,1.25C664.69,514.51,668.49,514.53,672.63,514.53Z" transform="translate(-181 -435.42)"/><path class="cls-2" d="M717.63,522.34a9.5,9.5,0,0,1-4,5.07c-5.23,3.43-11,4.24-17.08,3.21-2.32-.39-2.68-1.78-1.06-3.53,2.16-2.31,5.12-2.83,8-3.21C708.16,523.26,712.85,522.85,717.63,522.34Z" transform="translate(-181 -435.42)"/><path class="cls-2" d="M687.5,519.68a39.68,39.68,0,0,1,2-3.92,2.23,2.23,0,0,1,1.6-.59c3.36,0,6.71,0,10.07,0a2.72,2.72,0,0,0,1.83-.62,9.71,9.71,0,0,1,6.65-3.36,89.38,89.38,0,0,1,10.35.18c.8,0,1.55.83,2.33,1.27-.63.77-1.12,1.92-1.92,2.22a21.35,21.35,0,0,1-5,1c-8,.88-16.06.71-23.9,2.72C690.25,518.88,689.09,519.24,687.5,519.68Z" transform="translate(-181 -435.42)"/><path class="cls-2" d="M614.55,516.09H592a14.53,14.53,0,0,1,9-5,36.3,36.3,0,0,1,8.59,0,7.84,7.84,0,0,1,3.86,2C614.13,513.68,614.17,515,614.55,516.09Z" transform="translate(-181 -435.42)"/><path class="cls-2" d="M476.4,530.18c-1.16-.2-2.6-.35-4-.72a5.14,5.14,0,0,1-3.93-6.61,14.71,14.71,0,0,1,7.13-9.4c4.57-2.78,9.51-4.2,14.88-2.86,5.61,1.41,7.21,5.75,4,10.54a19.31,19.31,0,0,1-14,8.58C479.21,529.88,478,530,476.4,530.18Z" transform="translate(-181 -435.42)"/><path class="cls-2" d="M424.1,521.7c-.92,4-4,5.64-7.27,6.93a29.22,29.22,0,0,1-11.34,2.08,5.34,5.34,0,0,1-.69-.05c-1.46-.24-3.13-.22-3.74-2-.38-1.08,1-3.13,2.81-3.79a31.53,31.53,0,0,1,6.34-1.61C414.77,522.66,419.36,522.23,424.1,521.7Z" transform="translate(-181 -435.42)"/><path class="cls-1" d="M482,442.92a2.72,2.72,0,0,1-.11-.25L342.42,468.52c-1.22-11.16-2.4-22-3.6-33.1-.66.48-1.09.75-1.47,1.07Q314.15,456.22,291,476a13.66,13.66,0,0,1-8,3.62,150.45,150.45,0,0,0-46.83,12.54c-15.18,6.82-27.64,16.9-36.86,30.87a17.71,17.71,0,0,1-2.86,3.2c-4.87,4.46-9.65,9-13,14.81-5.68,10-1.05,20.32,10.16,22.8a38.56,38.56,0,0,0,14.64.1c11.07-1.78,21.38-5.89,31.49-10.51,12.57-5.73,25.07-11.62,37.63-17.37a4.3,4.3,0,0,1,2.74-.23c5.85,1.61,11.67,3.33,17.49,5l39.09,11.41c2.64.77,5.29,1.51,8.15,2.32v-2.51q0-20.84,0-41.67a2.48,2.48,0,0,1,1.59-2.66c8.58-4,17.12-8.15,25.67-12.24l56.33-26.92,46.47-22.22C477.25,445.23,479.6,444.07,482,442.92Z" transform="translate(-181 -435.42)"/><path class="cls-2" d="M482,442.92c-2.37,1.15-4.72,2.31-7.09,3.44l-46.47,22.22L372.08,495.5c-8.55,4.09-17.09,8.21-25.67,12.24a2.48,2.48,0,0,0-1.59,2.66q0,20.83,0,41.67v2.51c-2.86-.81-5.51-1.55-8.15-2.32l-39.09-11.41c-5.82-1.7-11.64-3.42-17.49-5a4.3,4.3,0,0,0-2.74.23c-12.56,5.75-25.06,11.64-37.63,17.37-10.11,4.62-20.42,8.73-31.49,10.51a38.56,38.56,0,0,1-14.64-.1c-11.21-2.48-15.84-12.84-10.16-22.8,3.32-5.83,8.1-10.35,13-14.81a17.71,17.71,0,0,0,2.86-3.2c9.22-14,21.68-24,36.86-30.87A150.45,150.45,0,0,1,283,479.61a13.66,13.66,0,0,0,8-3.62q23.11-19.83,46.37-39.5c.38-.32.81-.59,1.47-1.07,1.2,11.11,2.38,21.94,3.6,33.1l139.44-25.85A2.72,2.72,0,0,0,482,442.92Zm-148.2,37.26c-.94-8.47-1.84-16.69-2.78-25.17-.7.53-1.12.81-1.51,1.14q-18.9,16.08-37.82,32.12a4.58,4.58,0,0,1-2.45.83c-2.65.23-5.34.11-8,.49a165.75,165.75,0,0,0-34.38,8.64,88,88,0,0,0-29.76,18,19.76,19.76,0,0,1-2,1.48l.46.53c9.63-1.91,19.26-3.81,28.88-5.76a5.42,5.42,0,0,0,2.72-1.24c5.21-5.43,11.85-7.39,19-8a7.8,7.8,0,0,1,2.65.83c-.37.92-.47,2.17-1.15,2.69a20.48,20.48,0,0,1-5.7,3.5c-8.16,2.71-16.41,5.14-24.63,7.67-9.85,3-19.54,6.47-28.39,11.88-6.63,4-12.53,8.94-16.73,15.59-2.84,4.51-1.17,8,4.07,8.93.28,0,.57.07.86.1a42.21,42.21,0,0,0,19.43-2.68c8.73-3.17,17.35-6.7,25.84-10.47,11.36-5,22.54-10.47,33.83-15.66a5.1,5.1,0,0,1,3.24-.3c15.16,4.34,30.3,8.78,45.44,13.18,3.25,1,6.5,1.88,10,2.87v-2c0-11.75.05-23.5,0-35.24a2.46,2.46,0,0,1,1.63-2.63q32.31-15.39,64.6-30.86c2.89-1.38,5.76-2.79,8.63-4.19l-.13-.37Z" transform="translate(-181 -435.42)"/><path class="cls-1" d="M333.77,480.18l75.88-14.07.13.37c-2.87,1.4-5.74,2.81-8.63,4.19q-32.29,15.45-64.6,30.86a2.46,2.46,0,0,0-1.63,2.63c.05,11.74,0,23.49,0,35.24v2c-3.47-1-6.72-1.92-10-2.87-15.14-4.4-30.28-8.84-45.44-13.18a5.1,5.1,0,0,0-3.24.3c-11.29,5.19-22.47,10.62-33.83,15.66-8.49,3.77-17.11,7.3-25.84,10.47a42.21,42.21,0,0,1-19.43,2.68c-.29,0-.58-.05-.86-.1-5.24-.91-6.91-4.42-4.07-8.93,4.2-6.65,10.1-11.54,16.73-15.59,8.85-5.41,18.54-8.85,28.39-11.88,8.22-2.53,16.47-5,24.63-7.67a20.48,20.48,0,0,0,5.7-3.5c.68-.52.78-1.77,1.15-2.69a7.8,7.8,0,0,0-2.65-.83c-7.19.61-13.83,2.57-19,8a5.42,5.42,0,0,1-2.72,1.24c-9.62,2-19.25,3.85-28.88,5.76l-.46-.53a19.76,19.76,0,0,0,2-1.48,88,88,0,0,1,29.76-18,165.75,165.75,0,0,1,34.38-8.64c2.62-.38,5.31-.26,8-.49a4.58,4.58,0,0,0,2.45-.83q18.94-16,37.82-32.12c.39-.33.81-.61,1.51-1.14C331.93,463.49,332.83,471.71,333.77,480.18ZM249.6,522.59c-3.13,1.11-6.3,2.14-9.39,3.34-5.15,2-10.36,3.94-15.35,6.31-2.1,1-3.83,2.92-5.5,4.63-1.09,1.12-.61,2.06.94,2.18a15.65,15.65,0,0,0,3.28-.14C234.66,537.36,242.16,530,249.6,522.59Z" transform="translate(-181 -435.42)"/><path class="cls-2" d="M249.6,522.59c-7.44,7.45-14.94,14.77-26,16.32a15.65,15.65,0,0,1-3.28.14c-1.55-.12-2-1.06-.94-2.18,1.67-1.71,3.4-3.63,5.5-4.63,5-2.37,10.2-4.3,15.35-6.31C243.3,524.73,246.47,523.7,249.6,522.59Z" transform="translate(-181 -435.42)"/></svg>