<svg id="Layer_1" data-name="Layer 1" xmlns="http://www.w3.org/2000/svg" viewBox="0 0 638 307.94"><defs><style>.cls-1{fill-rule:evenodd;}</style></defs><title>Arai Logo Vector</title><path d="M181,509.36V490.64c.37-1.78.74-3.55,1.1-5.33,2.94-14.68,9.63-27.59,18.75-39.29,12.4-15.9,27.82-28.38,44.71-39.14,19.74-12.56,40.87-22.25,62.81-30.22A479.93,479.93,0,0,1,379.89,357c18.07-3.55,36.25-6.3,54.58-8.05,8.88-.85,17.79-1.43,26.68-2.12,3.73-.29,7.47-.56,11.2-.84h55.3c.83.12,1.66.3,2.5.35,6.15.35,12.34.38,18.45,1.06,17.52,1.93,35,3.79,52.48,6.3a456.89,456.89,0,0,1,70.23,16.13c32.61,10.1,63.8,23.29,92,42.93,16,11.19,30.33,24.21,41.2,40.64a85.92,85.92,0,0,1,12,26.11c.94,3.67,1.7,7.39,2.54,11.09v18.72c-.35,1.71-.71,3.42-1,5.13-2.94,14.75-9.63,27.73-18.8,39.49-12.39,15.9-27.82,28.38-44.71,39.14-19.74,12.55-40.87,22.25-62.81,30.22a443.25,443.25,0,0,1-71.54,19.54c-14.88,2.73-29.85,5.11-44.85,7-12,1.54-24.11,2.18-36.18,3.19-3.8.32-7.61.57-11.41.85h-55.3c-.83-.12-1.66-.3-2.5-.35-6.15-.35-12.34-.38-18.46-1-17.51-1.94-35-3.8-52.48-6.31a457.4,457.4,0,0,1-70.23-16.12c-32.68-10.13-63.93-23.36-92.12-43-16-11.16-30.2-24.15-41-40.53a86.24,86.24,0,0,1-12-26.1C182.59,516.78,181.84,513.06,181,509.36Zm507.58-99.28c-.57-.27-1.15-.52-1.71-.8a317.16,317.16,0,0,0-60.7-23.35c-31.09-8.64-62.82-13.28-95-15.18a525.2,525.2,0,0,0-83.66,1.73,458.87,458.87,0,0,0-53,8.42c-30.73,6.8-60.45,16.47-88.24,31.46-18.08,9.75-34.73,21.42-48.34,37-7.09,8.11-13,17-16.77,27.14-5.35,14.45-6.75,29.14-2.12,44.11a3.48,3.48,0,0,1-.7,2.59q-10.9,14.94-22,29.76c-.83,1.12-.95,2.07,0,2.94a33,33,0,0,0,5.48,4.59c6.25,3.65,13.24,4.82,20.33,5.45a99.83,99.83,0,0,0,25.6-1.27,3.26,3.26,0,0,1,3,.9c4.42,3.76,8.78,7.63,13.46,11,24.32,17.73,51.59,29.28,80.25,37.81a376.58,376.58,0,0,0,66.43,13.64c16.67,1.83,33.41,3.42,50.16,4.08a496.54,496.54,0,0,0,92.61-4.87,426.19,426.19,0,0,0,68-15.44c27-8.64,52.69-19.91,75.76-36.59,15.19-11,28.44-23.85,37.43-40.58a70.57,70.57,0,0,0,8.33-41.82c-1.71-15.71-8.2-29.34-18.61-41.11-4-4.49-8.25-8.71-12.43-13.08,7.3-15.94,1.89-27.5-8.46-35C714.7,397.22,696.19,398.78,688.58,410.08Z" transform="translate(-181 -346.03)"/><path class="cls-1" d="M728.79,450c-2.48,8.86-4.94,17.64-7.38,26.42q-5.32,19.1-10.61,38.21a16.43,16.43,0,0,0-.64,4.4c0,3.06,1.85,4.7,4.69,3.63a75.6,75.6,0,0,0,12.21-5.75c4.42-2.62,8.49-5.82,13.3-9.18-1.11,3.23-1.88,6-3,8.55-5.72,13.65-13.59,25.81-25.12,35.3-10,8.27-21.63,12.56-34.68,12.2-12.76-.35-18.2-8.76-17.08-20.53,0-.56.15-1.11.31-2.2-.94.77-1.56,1.26-2.16,1.77-8.88,7.49-18.36,14-29.42,17.89-6.08,2.14-12.32,3.68-18.89,3.17-6.1-.47-9.76-4-11.93-9.38-.88-2.15-1.42-4.42-2.06-6.46-2.78,2.47-5.46,5.32-8.58,7.55-9,6.41-19.15,7.58-29.8,5.92a42.25,42.25,0,0,1-17.74-6.61c-9-6.2-12.84-15.19-13.38-25.76-.64-12.49,2.68-24.24,7-35.76.35-.9.66-1.81.94-2.6a83.74,83.74,0,0,1-8.83,2.84c-6.3,1.32-12-.72-17.45-3.74-3.29-1.83-6-1.75-8.77.59a4,4,0,0,0-.94,2q-8.39,32.44-16.74,64.9c-1,4-1,4-5.19,4H435.27c1.31-8.17,2.57-16,3.91-24.37-.94.72-1.56,1.21-2.19,1.68-7.4,5.48-14.54,11.33-22.25,16.31-8.77,5.65-18.75,7.8-29.17,7.58-5.18-.11-9.92-1.56-13.46-5.68a17.89,17.89,0,0,1-3.94-10.54c-.74-8.86,1.41-17.29,4-25.62.91-2.89,2-5.73,3-8.85-.92,0-1.6,0-2.29,0-13.89.06-27.78.15-41.67.15a4.18,4.18,0,0,0-3.58,1.71c-8.95,10.69-18.75,20.49-30.14,28.61A91.26,91.26,0,0,1,263,558c-11.95,2.5-29.32,1.11-39.67-3.4l27.07-37.73c1.86,1,3.59,2.11,5.4,3,12.15,6,24.3,5.56,36.42-.11a82.6,82.6,0,0,0,27-20.66c8-9.14,15.38-18.88,22.86-28.5q32.67-42,65.17-84.23a4.75,4.75,0,0,1,4.26-2.06c13,.08,26.09,0,39.13,0h2.52c-1.36,5.83-2.6,11.24-3.88,16.65Q435.1,460.9,420.9,520.75a45.1,45.1,0,0,0-1.27,5.56c-.28,2.47.84,3.23,3.22,2.33a13.44,13.44,0,0,0,3.2-1.64q10.84-7.85,21.59-15.84a4.47,4.47,0,0,0,1.26-2.31q7.94-28.73,15.78-57.48c.45-1.68,1.06-2.4,3-2.39,13.26.08,26.51,0,39.77,0h2.3c-1.32,4.68-2.53,8.95-3.73,13.22l.65.31,18.86-16.81c.72,1.2,1.34,2.27,2,3.34,4.08,6.78,9.43,11.89,17.65,13,6.69.87,12.82-1.16,18.4-4.6,4.08-2.52,7.83-5.57,11.71-8.42a28.75,28.75,0,0,1,12.48-5.55c7.81-1.29,14.69,1.22,21.1,5.34,2.91,1.87,5.61,4,8.58,6.19.61-2.52,1.21-5,1.8-7.42h42.56c-.71,2.94-1.38,5.73-2.06,8.51-5.1,20.74-10.23,41.47-15.24,62.22a21.1,21.1,0,0,0-.36,6.73c.32,3.59,2.38,4.79,5.8,3.54a26.71,26.71,0,0,0,12.42-9.29,63,63,0,0,0,10.87-24.85c3.08-14.37,6.7-28.64,10-43,.26-1.13.58-1.7,1.88-1.69,14.32.05,28.64,0,43,.05A5.34,5.34,0,0,1,728.79,450ZM611.9,475c0-9.32-5.47-13.36-12.67-11.15A15,15,0,0,0,590.6,470a123.48,123.48,0,0,0-6.47,12.13,106.23,106.23,0,0,0-9.1,25.71c-1.54,7.81,3.89,14.32,11.83,14.32,6.39,0,11.67-3.76,14.23-10.77q4.18-11.44,7.7-23.11C610.27,483.35,611.15,478.25,611.9,475Zm-229,15.39q7.69-28.53,15.37-57l-.32-.17c-16.09,18.92-32.18,37.84-48.62,57.19Z" transform="translate(-181 -346.03)"/><path class="cls-1" d="M689.66,425.39a20.19,20.19,0,0,1,20-20.26c11.06-.13,20.54,9,20.35,20.12-.18,11.27-8.52,20.05-20.11,20.15A20,20,0,0,1,689.66,425.39Z" transform="translate(-181 -346.03)"/><path class="cls-1" d="M502.82,578.25c4.14,0,8.11-.06,12.07.07.55,0,1.33.89,1.55,1.52,2.07,5.87,4,11.77,6,17.66.18.53.38,1,.7,1.93,2.44-7.24,4.77-14.15,7.09-21.07h13.13v32.93H535V589.54l-.45-.08c-.59,1.76-1.2,3.51-1.76,5.27-1.62,5-3.25,10.09-4.8,15.16a1.89,1.89,0,0,1-2.24,1.61c-2.25-.13-5.08.71-6.62-.37s-1.75-4-2.45-6.09c-1.65-5.08-3.25-10.17-5.38-15.19v21.53h-8.5Z" transform="translate(-181 -346.03)"/><path class="cls-1" d="M582.47,578.42v6.05h-22v6.47h20.61a42.84,42.84,0,0,1-.09,5.25c-.06.42-1.21,1-1.87,1-5.38.07-10.76,0-16.15,0h-2.49v8h22.83v6.14H551.16V578.42Z" transform="translate(-181 -346.03)"/><path class="cls-1" d="M429,578.35h31.38c0,1.7,0,3.31,0,4.92,0,1.42-1,1.28-1.94,1.28H438.09v6.33h20.47v6.29H438v8.07h6.64c4.89,0,9.78,0,14.66,0,1.35,0,2,.39,1.85,1.82s0,2.79,0,4.31H429Z" transform="translate(-181 -346.03)"/><path class="cls-1" d="M396.24,597.47v13.82h-9.12V578.4h9v12.46h15.64V578.38h9v33h-8.93V597.47Z" transform="translate(-181 -346.03)"/><path class="cls-1" d="M620.33,578.43v6H608.25v26.87h-9.09V584.66H587v-6.23Z" transform="translate(-181 -346.03)"/><path class="cls-1" d="M476.84,605.25h20.65v6.08H467.84V578.49c2.64,0,5.31-.08,8,.08.38,0,1,1.19,1,1.84.08,7.29,0,14.58,0,21.87Z" transform="translate(-181 -346.03)"/><path class="cls-1" d="M615.7,599.92a11.14,11.14,0,0,1,11.33-11,11.18,11.18,0,1,1-11.33,11Zm17.3,5.64a8.13,8.13,0,0,0-.18-11.54A8.46,8.46,0,1,0,621,606.14c3.16,3,8.19,3.18,11,.28-2.21,0-2.58-2-3.48-3.31-1-1.5-2.12-2.44-4.26-1.71v4.78h-2.07V594a70.19,70.19,0,0,1,7.13,0,3.33,3.33,0,0,1,2.14,5.34,16.7,16.7,0,0,1-1.63,1.53C630.86,602.41,631.89,603.91,633,605.56Zm-8.65-6.65a17.5,17.5,0,0,0,3.59-.06c.66-.15,1.18-.94,1.77-1.44-.57-.51-1.08-1.32-1.73-1.46a18.15,18.15,0,0,0-3.63-.06Z" transform="translate(-181 -346.03)"/></svg>