<?xml version="1.0" encoding="UTF-8"?>
<!DOCTYPE svg PUBLIC "-//W3C//DTD SVG 1.1//EN" "http://www.w3.org/Graphics/SVG/1.1/DTD/svg11.dtd">
<!-- Creator: CorelDRAW 2019 (64-Bit) -->
<svg xmlns="http://www.w3.org/2000/svg" xml:space="preserve" width="196.899mm" height="68.4867mm" version="1.1" style="shape-rendering:geometricPrecision; text-rendering:geometricPrecision; image-rendering:optimizeQuality; fill-rule:evenodd; clip-rule:evenodd"
viewBox="0 0 196.8906 68.4839"
 xmlns:xlink="http://www.w3.org/1999/xlink"
 xmlns:xodm="http://www.corel.com/coreldraw/odm/2003">
 <defs>
  <style type="text/css">
   <![CDATA[
    .fil0 {fill:black}
   ]]>
  </style>
 </defs>
 <g id="Layer_x0020_1">
  <metadata id="CorelCorpID_0Corel-Layer"/>
  <g id="_905354816">
   <path class="fil0" d="M34.8984 0l127.4472 0c3.992,0 5.8345,1.2286 7.6783,2.7641 2.7629,2.4568 24.8745,24.5677 24.8745,24.5677 0,0 -2.1496,-2.1493 0,0 3.0717,3.0711 2.457,10.7486 -0.9205,14.127 -3.379,3.071 -20.8838,21.1898 -23.3395,23.0329 -2.4583,1.8423 -3.9933,3.9922 -6.7562,3.9922 -2.7643,0 -124.3773,0 -128.0621,0 -3.6852,0 -7.3706,-1.5356 -9.213,-3.378l-22.1116 -22.1116c-5.2209,-5.2209 -5.8352,-11.3628 -2.1498,-15.6626 2.4566,-2.7635 22.1116,-22.1109 24.5682,-24.2608 3.0712,-2.4567 3.9923,-3.071 7.9847,-3.071zm2.1498 3.9922l0 0c-3.9923,0 -4.9135,0 -7.3703,2.1498 -2.4572,2.1499 -21.8046,21.1897 -24.2614,23.9539 -2.1498,2.1498 -1.8423,6.4488 0.6143,9.213l23.0328 23.0328c1.8425,1.5355 3.378,2.4568 6.7564,2.4568l124.6831 0c2.457,0 3.6849,0 5.8346,-1.8424 2.1497,-1.843 20.5766,-20.5762 23.648,-23.3402 3.0703,-3.0711 2.7631,-7.3701 0,-10.4412 -2.1497,-2.1498 0,0 0,0 0,0 -19.6559,-19.3473 -22.1116,-21.804 -2.457,-2.4573 -4.2992,-3.0711 -9.5205,-3.0711l-121.3053 0 0 -0.3074z"/>
   <path class="fil0" d="M179.543 39.0021c-2.7629,0 -4.9125,-2.1499 -4.9125,-4.9139 0,-2.7636 2.1496,-4.9135 4.9125,-4.9135 2.7643,0 4.9141,2.1499 4.9141,4.9135 0,2.764 -2.1498,4.9139 -4.9141,4.9139zm0 -1.2286l0 0c2.1498,0 3.6863,-1.8424 3.6863,-3.6852 0,-2.1499 -1.8425,-3.6853 -3.6863,-3.6853 -2.1497,0 -3.6846,1.8429 -3.6846,3.6853 -0.3074,2.1497 1.5349,3.6852 3.6846,3.6852z"/>
   <path class="fil0" d="M177.7008 31.6315l2.457 0c0.6146,0 1.229,0.6143 1.229,1.2285 0,0.6138 -0.3072,0.9213 -0.6145,0.9213 0.3073,0 0.6145,0.9211 0.6145,1.2279 0,0.3075 0,0.9218 0.306,1.2286l-1.2277 0c-0.3073,0 -0.3073,-1.2286 -0.3073,-1.5355 0,-0.3069 -0.3075,-0.3069 -0.6148,-0.3069l-0.9205 0 0 1.8424 -1.2292 0 0 -4.6064 0.3075 0zm0.9218 0.6143l0 0 0 1.5355 0.9205 0c0.3073,0 0.6148,-0.6144 0.6148,-0.6144 0,-0.3069 -0.3075,-0.6143 -0.6148,-0.6143l-0.9205 0 0 -0.3069z"/>
   <path class="fil0" d="M80.3494 36.5448l0 15.0483c0,1.5355 1.2286,2.7642 2.7642,2.7642l5.5277 0c1.5355,0 2.764,-1.2286 2.764,-2.7642l0 -34.7024c0,-1.5355 -1.2284,-2.7642 -2.764,-2.7642l-5.5277 0c-1.5355,0 -2.7642,1.2286 -2.7642,2.7642l0 11.9766 -8.2915 0 0 -11.9766c0,-1.5355 -1.2284,-3.0711 -2.764,-3.0711l-5.221 0c-1.5355,0 -2.7636,1.2286 -2.7636,2.7642l0 34.7024c0,1.5355 1.228,2.7637 2.7636,2.7637l5.221 0c1.5355,0 2.764,-1.2281 2.764,-2.7637l0 -15.0483 8.2915 0 0 0.3069z"/>
   <path class="fil0" d="M165.417 54.3573c1.5352,0 2.763,-1.2286 2.763,-2.7642l0 -34.7024c0,-1.5355 -1.2277,-2.7642 -2.763,-2.7642l-5.5272 0c-1.5363,0 -2.7643,1.2286 -2.7643,2.7642l0 34.7024c0,1.5355 1.2279,2.7642 2.7643,2.7642l5.5272 0z"/>
   <path class="fil0" d="M147.9122 37.1591c1.2277,0 2.457,-0.9212 2.457,-2.4567l0 -2.7641c0,-1.228 -0.922,-2.4567 -2.457,-2.4567l-7.6784 0 0 -7.9844 11.6704 0c1.2292,0 2.457,-0.9212 2.457,-2.4567l0 -2.7641c0,-1.2281 -1.2277,-2.4568 -2.457,-2.4568l-19.9618 0c-1.5355,0 -2.7636,1.5355 -2.7636,3.0711l0 34.7024c0,1.5355 1.228,2.7642 2.7636,2.7642l20.5765 0c1.2277,0 2.457,-1.2286 2.457,-2.4573l0 -2.7636c0,-1.2286 -0.922,-2.4567 -2.457,-2.4567l-12.2851 0 0 -9.5206 7.6784 0z"/>
   <path class="fil0" d="M38.5835 13.8196l15.6626 0c1.228,0 1.5356,0.9213 1.5356,1.8424l0 3.9928c0,1.228 -0.9219,1.8423 -2.1499,1.8423l-9.8274 0c-2.1498,0 -2.4568,0.9213 -1.2287,2.4568 1.2287,1.5353 11.9774,13.5125 14.1272,15.6619 4.6065,5.2208 0.3068,14.434 -6.4495,14.434l-16.5831 0c-0.9212,0 -1.843,-0.6144 -1.843,-1.5355l0 -4.9135c0,-0.9212 0.6143,-1.5354 1.5354,-1.5354l10.1348 0c2.7636,0 3.378,-0.6144 1.5356,-2.7642 -1.5356,-2.1499 -10.7488,-12.2841 -13.2059,-15.3552 -3.3779,-4.2991 -0.9212,-14.1264 6.7563,-14.1264z"/>
   <path class="fil0" d="M104.9174 13.8196l11.0562 0c5.5278,0 9.5199,0.9213 9.5199,20.2686 0,19.3473 -4.2997,20.2691 -8.9061,20.2691l-12.2836 0c-5.5284,0 -9.2132,-0.9218 -9.2132,-20.2691 0,-19.3473 3.3779,-20.2686 9.8268,-20.2686zm0.6144 20.2686l0 0c0,7.6775 0.9213,12.284 4.9134,12.284 4.6067,0 4.9141,-4.9134 4.9141,-12.284 0,-7.6775 -0.9212,-12.2841 -4.9141,-12.2841 -4.2991,0 -4.9134,5.5277 -4.9134,12.2841z"/>
  </g>
 </g>
</svg>
